<svg width="3387" height="555" viewBox="0 0 3387 555" fill="none" xmlns="http://www.w3.org/2000/svg">
<path d="M483.366 376H435.366V163H483.366V376ZM457.866 277.3H483.366V328.6C483.366 335 483.766 340.4 484.566 344.8C485.566 349 487.066 352.7 489.066 355.9C491.066 358.9 493.666 361.5 496.866 363.7C500.066 365.7 504.166 367.6 509.166 369.4V376H457.866V277.3ZM435.366 277.3H459.366V376H410.166V369.4C414.966 367.6 418.966 365.7 422.166 363.7C425.366 361.5 427.866 358.9 429.666 355.9C431.666 352.7 433.066 349 433.866 344.8C434.866 340.4 435.366 335 435.366 328.6V277.3ZM483.366 238.3H457.866V163H509.166V169.6C504.166 171.4 500.066 173.4 496.866 175.6C493.666 177.6 491.066 180.2 489.066 183.4C487.066 186.4 485.566 190.1 484.566 194.5C483.766 198.9 483.366 204.2 483.366 210.4V238.3ZM459.366 238.3H435.366V210.4C435.366 204.2 434.866 198.9 433.866 194.5C433.066 190.1 431.666 186.4 429.666 183.4C427.866 180.2 425.366 177.6 422.166 175.6C418.966 173.4 414.966 171.4 410.166 169.6V163H459.366V238.3Z" fill="black"/>
<path d="M152.3 277.3H177.8V328.6C177.8 335 178.2 340.4 179 344.8C180 349 181.5 352.7 183.5 355.9C185.5 358.9 188.1 361.5 191.3 363.7C194.5 365.7 198.6 367.6 203.6 369.4V376H152.3V277.3ZM129.8 277.3H153.8V376H104.6V369.4C109.4 367.6 113.4 365.7 116.6 363.7C119.8 361.5 122.3 358.9 124.1 355.9C126.1 352.7 127.5 349 128.3 344.8C129.3 340.4 129.8 335 129.8 328.6V277.3ZM177.8 238.3H152.3V163H203.6V169.6C198.6 171.4 194.5 173.4 191.3 175.6C188.1 177.6 185.5 180.2 183.5 183.4C181.5 186.4 180 190.1 179 194.5C178.2 198.9 177.8 204.2 177.8 210.4V238.3ZM153.8 238.3H129.8V210.4C129.8 204.2 129.3 198.9 128.3 194.5C127.5 190.1 126.1 186.4 124.1 183.4C122.3 180.2 119.8 177.6 116.6 175.6C113.4 173.4 109.4 171.4 104.6 169.6V163H153.8V238.3ZM232.1 287.8H289.4L317.3 321.1C325.5 330.9 332.4 338.8 338 344.8C343.8 350.6 348.7 355.2 352.7 358.6C356.9 361.8 360.5 364.1 363.5 365.5C366.7 366.9 369.9 368.2 373.1 369.4V376H283.1V369.4C285.5 368.2 287.2 367 288.2 365.8C289.4 364.4 289.6 362.4 288.8 359.8C288 357.2 286.1 353.9 283.1 349.9C280.1 345.9 275.9 340.5 270.5 333.7L232.1 287.8ZM275.3 299.2H177.8V376H129.8V163H275.3C303.7 163 324.9 169.1 338.9 181.3C352.9 193.5 359.9 210.4 359.9 232C359.9 243.2 358.1 252.9 354.5 261.1C351.1 269.3 345.9 276.3 338.9 282.1C331.9 287.7 323 292 312.2 295C301.6 297.8 289.3 299.2 275.3 299.2ZM263.9 202.6H177.8V259.6H263.9C280.3 259.6 291.8 257.3 298.4 252.7C305.2 248.1 308.6 241.2 308.6 232C308.6 222.8 305.2 215.6 298.4 210.4C291.8 205.2 280.3 202.6 263.9 202.6Z" fill="black"/>
<path d="M2834.99 311.9H2855.99V419H2834.99V311.9Z" fill="black"/>
<path d="M2818.21 394.55C2816.71 403.4 2813.26 410.15 2807.56 414.65C2801.86 419.15 2793.76 421.4 2782.96 421.4C2769.91 421.4 2760.16 417.8 2753.56 410.6C2746.96 403.4 2743.81 393.2 2743.81 380C2743.81 373.4 2744.71 367.55 2746.66 362.45C2748.46 357.35 2751.16 352.85 2754.61 349.25C2758.06 345.65 2762.26 342.95 2767.06 341.15C2771.86 339.35 2777.11 338.3 2782.96 338.3C2794.96 338.3 2803.96 341.75 2809.96 348.65C2815.96 355.55 2819.11 364.85 2819.11 376.55V384.95H2764.81C2764.96 391.25 2766.61 396.2 2769.61 399.8C2772.61 403.4 2777.11 405.05 2783.11 405.05C2791.36 405.05 2796.31 401.6 2797.81 394.55H2818.21ZM2798.86 371.15C2798.86 365.75 2797.51 361.55 2794.81 358.55C2792.11 355.55 2788.06 354.05 2782.51 354.05C2779.66 354.05 2777.26 354.5 2775.16 355.4C2773.06 356.3 2771.26 357.65 2769.76 359.15C2768.26 360.65 2767.21 362.45 2766.46 364.55C2765.56 366.65 2765.11 368.75 2765.11 371.15H2798.86Z" fill="black"/>
<path d="M2707.5 408.65C2701.5 417.2 2693.4 421.4 2683.2 421.4C2672.1 421.4 2664 417.8 2658.6 410.3C2653.2 402.95 2650.5 392.75 2650.5 379.55C2650.5 373.55 2651.25 368 2652.75 362.9C2654.25 357.8 2656.5 353.45 2659.5 349.85C2662.35 346.25 2665.95 343.4 2670.15 341.3C2674.35 339.35 2679 338.3 2684.4 338.3C2688.3 338.3 2692.05 339.05 2695.95 340.4C2699.85 341.9 2703.45 344.6 2706.9 348.5V311.9H2727.9V419H2707.5V408.65ZM2707.05 378.95C2707.05 374 2706.6 369.95 2705.7 366.95C2704.8 363.95 2703.45 361.55 2701.65 359.6C2699.85 357.8 2697.75 356.75 2695.65 356.15C2693.55 355.55 2691.45 355.25 2689.35 355.25C2686.95 355.25 2684.85 355.7 2682.75 356.6C2680.65 357.5 2678.85 359 2677.35 360.8C2675.85 362.75 2674.65 365.3 2673.75 368.3C2672.85 371.45 2672.4 375.2 2672.4 379.4C2672.4 384.2 2672.7 388.1 2673.6 391.25C2674.5 394.4 2675.7 396.95 2677.2 398.9C2678.7 400.85 2680.35 402.2 2682.45 403.1C2684.4 404 2686.5 404.3 2688.9 404.3C2693.85 404.3 2697.9 402.95 2701.2 399.95C2703.15 398 2704.65 395.6 2705.55 392.75C2706.45 389.9 2707.05 386.15 2707.05 381.65V378.95Z" fill="black"/>
<path d="M2597.67 421.4C2585.07 421.4 2575.32 417.8 2568.42 410.6C2561.52 403.4 2558.07 393.2 2558.07 379.7C2558.07 373.4 2558.97 367.55 2560.77 362.45C2562.57 357.35 2565.27 353 2568.72 349.4C2572.17 345.8 2576.37 343.1 2581.32 341.15C2586.12 339.35 2591.67 338.3 2597.67 338.3C2603.67 338.3 2609.22 339.35 2614.17 341.15C2618.97 343.1 2623.17 345.8 2626.62 349.4C2630.07 353 2632.77 357.35 2634.57 362.45C2636.37 367.55 2637.27 373.4 2637.27 379.7C2637.27 386.3 2636.22 392.15 2634.42 397.25C2632.62 402.35 2629.92 406.7 2626.47 410.3C2623.02 413.9 2618.82 416.75 2614.02 418.55C2609.07 420.5 2603.67 421.4 2597.67 421.4ZM2597.67 404.6C2603.67 404.6 2608.02 402.5 2611.02 398.15C2614.02 393.95 2615.52 387.8 2615.52 379.7C2615.52 371.75 2614.02 365.6 2611.02 361.4C2608.02 357.2 2603.67 355.1 2597.67 355.1C2591.67 355.1 2587.17 357.2 2584.17 361.4C2581.17 365.6 2579.82 371.75 2579.82 379.7C2579.82 387.8 2581.17 394.1 2584.17 398.3C2587.02 402.5 2591.52 404.6 2597.67 404.6Z" fill="black"/>
<path d="M2433.36 311.9H2460.21L2486.91 391.85L2514.36 311.9H2540.46V419H2519.91V347.6L2495.46 419H2478.06L2453.46 347.75V419H2433.36V311.9Z" fill="black"/>
<path d="M2326.9 423.95C2327.2 426.05 2327.8 427.55 2328.55 428.75C2329.3 429.95 2330.35 431 2331.55 431.6C2332.75 432.35 2334.25 432.8 2336.05 433.1C2337.85 433.4 2339.95 433.4 2342.5 433.4C2346.4 433.4 2349.4 432.8 2351.65 431.3C2353.75 429.8 2355.4 427.85 2356.45 425.45C2357.5 423.05 2358.1 420.35 2358.4 417.2C2358.7 414.2 2358.85 410.9 2358.85 407.6V405.2C2356.15 409.1 2352.85 411.95 2348.8 413.9C2344.75 415.85 2340.25 416.75 2335.15 416.75C2324.05 416.75 2315.8 413.3 2310.4 406.1C2305 399.05 2302.3 389.45 2302.3 377.45C2302.3 371.75 2303.05 366.5 2304.55 361.7C2306.05 356.9 2308.3 352.85 2311.3 349.4C2314.15 345.95 2317.75 343.25 2321.95 341.3C2326.15 339.35 2330.95 338.3 2336.35 338.3C2340.55 338.3 2344.6 339.2 2348.5 340.7C2352.4 342.35 2356.15 345.35 2359.45 349.55V340.7H2379.85V408.05C2379.85 414.65 2379.1 420.65 2377.75 425.75C2376.4 430.85 2374.3 435.2 2371.3 438.8C2368.3 442.4 2364.55 445.25 2359.75 447.05C2354.95 448.85 2349.25 449.75 2342.5 449.75C2336.2 449.75 2330.8 449.3 2326.3 448.25C2321.8 447.2 2318.2 445.55 2315.35 443.45C2312.35 441.35 2310.1 438.65 2308.6 435.35C2307.1 432.05 2306.05 428.3 2305.6 423.95H2326.9ZM2359 377.15C2359 372.5 2358.4 368.75 2357.35 365.75C2356.3 362.9 2354.95 360.65 2353.3 359.15C2351.5 357.65 2349.7 356.6 2347.6 356C2345.5 355.55 2343.4 355.25 2341.3 355.25C2338.9 355.25 2336.8 355.7 2334.7 356.45C2332.6 357.35 2330.8 358.55 2329.3 360.35C2327.8 362.15 2326.6 364.55 2325.7 367.25C2324.8 370.1 2324.35 373.4 2324.35 377.3C2324.35 385.7 2325.85 391.55 2329 395C2332.15 398.45 2336.05 400.1 2340.85 400.1C2343.4 400.1 2345.8 399.8 2348.05 399.05C2350.3 398.3 2352.25 397.1 2353.9 395.45C2355.4 393.8 2356.75 391.7 2357.65 389C2358.55 386.3 2359 383.15 2359 379.25V377.15Z" fill="black"/>
<path d="M2216.24 340.7H2236.64V351.5C2239.64 347 2243.39 343.55 2247.59 341.45C2251.79 339.35 2256.29 338.3 2260.94 338.3C2269.79 338.3 2276.39 340.7 2280.74 345.35C2284.94 350 2287.19 357.35 2287.19 367.25V419H2266.19V370.1C2266.19 364.7 2265.14 360.95 2263.04 358.85C2260.94 356.9 2258.09 355.85 2254.64 355.85C2251.94 355.85 2249.54 356.3 2247.59 357.05C2245.64 357.95 2243.84 359 2242.19 360.5C2240.69 362 2239.49 363.65 2238.59 365.6C2237.69 367.55 2237.24 369.65 2237.24 371.9V419H2216.24V340.7Z" fill="black"/>
<path d="M2176.54 340.7H2197.54V419H2176.54V340.7ZM2176.24 311.9H2197.84V330.8H2176.24V311.9Z" fill="black"/>
<path d="M2087.62 340.7H2108.02V351.5C2111.02 347 2114.77 343.55 2118.97 341.45C2123.17 339.35 2127.67 338.3 2132.32 338.3C2141.17 338.3 2147.77 340.7 2152.12 345.35C2156.32 350 2158.57 357.35 2158.57 367.25V419H2137.57V370.1C2137.57 364.7 2136.52 360.95 2134.42 358.85C2132.32 356.9 2129.47 355.85 2126.02 355.85C2123.32 355.85 2120.92 356.3 2118.97 357.05C2117.02 357.95 2115.22 359 2113.57 360.5C2112.07 362 2110.87 363.65 2109.97 365.6C2109.07 367.55 2108.62 369.65 2108.62 371.9V419H2087.62V340.7Z" fill="black"/>
<path d="M2032.09 421.4C2019.49 421.4 2009.74 417.8 2002.84 410.6C1995.94 403.4 1992.49 393.2 1992.49 379.7C1992.49 373.4 1993.39 367.55 1995.19 362.45C1996.99 357.35 1999.69 353 2003.14 349.4C2006.59 345.8 2010.79 343.1 2015.74 341.15C2020.54 339.35 2026.09 338.3 2032.09 338.3C2038.09 338.3 2043.64 339.35 2048.59 341.15C2053.39 343.1 2057.59 345.8 2061.04 349.4C2064.49 353 2067.19 357.35 2068.99 362.45C2070.79 367.55 2071.69 373.4 2071.69 379.7C2071.69 386.3 2070.64 392.15 2068.84 397.25C2067.04 402.35 2064.34 406.7 2060.89 410.3C2057.44 413.9 2053.24 416.75 2048.44 418.55C2043.49 420.5 2038.09 421.4 2032.09 421.4ZM2032.09 404.6C2038.09 404.6 2042.44 402.5 2045.44 398.15C2048.44 393.95 2049.94 387.8 2049.94 379.7C2049.94 371.75 2048.44 365.6 2045.44 361.4C2042.44 357.2 2038.09 355.1 2032.09 355.1C2026.09 355.1 2021.59 357.2 2018.59 361.4C2015.59 365.6 2014.24 371.75 2014.24 379.7C2014.24 387.8 2015.59 394.1 2018.59 398.3C2021.44 402.5 2025.94 404.6 2032.09 404.6Z" fill="black"/>
<path d="M1929.77 394.1C1930.37 398.75 1932.32 401.75 1935.32 403.1C1938.32 404.6 1941.92 405.2 1946.12 405.2C1951.07 405.2 1954.67 404.6 1956.77 403.4C1958.87 402.2 1960.07 400.1 1960.07 397.25C1960.07 395.3 1959.32 393.5 1957.97 392C1956.62 390.5 1954.07 389.45 1950.32 388.85L1939.52 387.05C1929.92 385.55 1922.87 383 1918.22 379.4C1913.57 375.8 1911.32 370.25 1911.32 362.75C1911.32 359 1912.07 355.55 1913.72 352.55C1915.37 349.55 1917.77 347 1920.77 344.9C1923.77 342.8 1927.22 341.3 1931.42 340.1C1935.62 338.9 1940.12 338.3 1945.22 338.3C1951.37 338.3 1956.62 339.05 1960.82 340.25C1965.02 341.45 1968.32 343.1 1971.02 345.2C1973.72 347.3 1975.67 349.85 1977.02 352.7C1978.37 355.7 1979.42 358.7 1980.02 362L1961.27 364.4C1960.37 360.8 1958.72 358.25 1956.47 356.45C1954.22 354.8 1950.62 353.9 1945.67 353.9C1942.82 353.9 1940.42 354.2 1938.62 354.65C1936.82 355.1 1935.32 355.7 1934.27 356.3C1933.22 357.05 1932.47 357.8 1932.02 358.7C1931.57 359.6 1931.42 360.5 1931.42 361.25C1931.42 363.8 1932.17 365.6 1933.67 366.8C1935.17 368 1938.32 368.9 1942.82 369.65L1952.72 371.3C1958.12 372.2 1962.77 373.4 1966.37 374.75C1969.97 376.25 1972.82 377.9 1974.92 380C1977.02 382.1 1978.52 384.5 1979.42 387.2C1980.32 390.05 1980.77 393.35 1980.77 396.95C1980.77 404.45 1977.92 410.3 1972.37 414.8C1966.67 419.3 1958.12 421.4 1946.42 421.4C1941.62 421.4 1937.12 421.1 1932.92 420.2C1928.72 419.3 1924.82 417.8 1921.52 415.7C1918.22 413.6 1915.37 410.9 1913.27 407.3C1911.17 403.85 1909.97 399.5 1909.67 394.1H1929.77Z" fill="black"/>
<path d="M1877.04 409.1C1873.89 412.7 1870.44 415.55 1866.54 417.65C1862.64 419.9 1857.69 420.95 1851.69 420.95C1848.09 420.95 1844.79 420.5 1841.64 419.6C1838.49 418.7 1835.79 417.35 1833.39 415.4C1830.99 413.6 1829.19 411.2 1827.84 408.2C1826.34 405.2 1825.74 401.75 1825.74 397.55C1825.74 392.15 1826.94 387.8 1829.34 384.35C1831.74 381.05 1834.89 378.35 1838.79 376.4C1842.69 374.6 1847.04 373.25 1851.84 372.35C1856.64 371.6 1861.59 371.15 1866.69 370.85L1876.74 370.4V366.5C1876.74 361.7 1875.39 358.4 1872.69 356.6C1869.99 354.8 1866.99 353.9 1863.39 353.9C1854.99 353.9 1850.34 357.05 1849.14 363.35L1829.94 361.55C1831.29 353.45 1834.89 347.45 1840.74 343.85C1846.44 340.25 1854.24 338.3 1864.14 338.3C1870.14 338.3 1875.24 339.05 1879.44 340.55C1883.64 342.05 1886.94 344 1889.49 346.7C1892.04 349.4 1893.84 352.7 1895.04 356.6C1896.24 360.5 1896.84 364.7 1896.84 369.5V419H1877.04V409.1ZM1876.59 384.05L1867.29 384.5C1862.79 384.8 1859.34 385.25 1856.64 385.85C1853.94 386.6 1851.84 387.5 1850.34 388.55C1848.84 389.6 1847.94 390.8 1847.49 392.15C1846.89 393.65 1846.74 395.15 1846.74 396.8C1846.74 399.5 1847.64 401.45 1849.44 402.95C1851.24 404.45 1853.64 405.2 1856.94 405.2C1862.34 405.2 1866.69 404 1870.14 401.45C1871.94 400.1 1873.59 398.3 1874.79 396.2C1875.99 394.1 1876.59 391.4 1876.59 388.1V384.05Z" fill="black"/>
<path d="M1813.91 394.55C1812.41 403.4 1808.96 410.15 1803.26 414.65C1797.56 419.15 1789.46 421.4 1778.66 421.4C1765.61 421.4 1755.86 417.8 1749.26 410.6C1742.66 403.4 1739.51 393.2 1739.51 380C1739.51 373.4 1740.41 367.55 1742.36 362.45C1744.16 357.35 1746.86 352.85 1750.31 349.25C1753.76 345.65 1757.96 342.95 1762.76 341.15C1767.56 339.35 1772.81 338.3 1778.66 338.3C1790.66 338.3 1799.66 341.75 1805.66 348.65C1811.66 355.55 1814.81 364.85 1814.81 376.55V384.95H1760.51C1760.66 391.25 1762.31 396.2 1765.31 399.8C1768.31 403.4 1772.81 405.05 1778.81 405.05C1787.06 405.05 1792.01 401.6 1793.51 394.55H1813.91ZM1794.56 371.15C1794.56 365.75 1793.21 361.55 1790.51 358.55C1787.81 355.55 1783.76 354.05 1778.21 354.05C1775.36 354.05 1772.96 354.5 1770.86 355.4C1768.76 356.3 1766.96 357.65 1765.46 359.15C1763.96 360.65 1762.91 362.45 1762.16 364.55C1761.26 366.65 1760.81 368.75 1760.81 371.15H1794.56Z" fill="black"/>
<path d="M1648.79 311.9H1686.74C1695.14 311.9 1702.04 312.95 1707.44 314.9C1712.84 316.85 1717.19 319.4 1720.34 322.55C1723.34 325.7 1725.59 329.15 1726.79 333.05C1727.99 336.95 1728.59 340.7 1728.59 344.3C1728.59 351.2 1727.24 357.05 1724.84 361.7C1722.29 366.5 1718.09 370.4 1712.24 373.55L1733.99 419H1709.84L1691.84 378.8H1670.84V419H1648.79V311.9ZM1688.24 360.2C1691.69 360.2 1694.54 359.9 1696.94 359.15C1699.19 358.4 1700.99 357.35 1702.34 356C1703.69 354.65 1704.59 353 1705.19 351.05C1705.64 349.25 1705.94 347.15 1705.94 344.75C1705.94 342.95 1705.64 341.15 1705.04 339.35C1704.44 337.55 1703.39 336.05 1701.89 334.7C1700.39 333.35 1698.44 332.3 1695.89 331.55C1693.34 330.8 1690.19 330.35 1686.29 330.35H1670.84V360.2H1688.24Z" fill="black"/>
<path d="M1560.66 437.6C1566.36 427.4 1570.56 416.9 1573.11 406.4C1575.66 395.9 1577.01 384.8 1577.01 373.25C1577.01 361.85 1575.66 350.75 1573.11 340.25C1570.56 329.75 1566.36 319.25 1560.66 308.9H1580.61C1583.31 313.25 1585.86 317.9 1588.11 323C1590.36 328.1 1592.31 333.35 1593.81 338.75C1595.31 344.3 1596.51 350 1597.41 355.7C1598.16 361.55 1598.61 367.4 1598.61 373.25C1598.61 379.25 1598.16 385.1 1597.41 390.8C1596.51 396.65 1595.31 402.35 1593.81 407.75C1592.31 413.3 1590.36 418.55 1588.11 423.65C1585.86 428.75 1583.31 433.4 1580.61 437.6H1560.66Z" fill="black"/>
<path d="M1526.62 311.9H1548.98V419H1526.62V311.9Z" fill="black"/>
<path d="M1428.63 311.9H1466.58C1474.98 311.9 1481.88 312.95 1487.28 314.9C1492.68 316.85 1497.03 319.4 1500.18 322.55C1503.18 325.7 1505.43 329.15 1506.63 333.05C1507.83 336.95 1508.43 340.7 1508.43 344.3C1508.43 351.2 1507.08 357.05 1504.68 361.7C1502.13 366.5 1497.93 370.4 1492.08 373.55L1513.83 419H1489.68L1471.68 378.8H1450.68V419H1428.63V311.9ZM1468.08 360.2C1471.53 360.2 1474.38 359.9 1476.78 359.15C1479.03 358.4 1480.83 357.35 1482.18 356C1483.53 354.65 1484.43 353 1485.03 351.05C1485.48 349.25 1485.78 347.15 1485.78 344.75C1485.78 342.95 1485.48 341.15 1484.88 339.35C1484.28 337.55 1483.23 336.05 1481.73 334.7C1480.23 333.35 1478.28 332.3 1475.73 331.55C1473.18 330.8 1470.03 330.35 1466.13 330.35H1450.68V360.2H1468.08Z" fill="black"/>
<path d="M1397 437.6C1394.15 433.4 1391.6 428.75 1389.35 423.65C1387.1 418.55 1385.15 413.3 1383.65 407.75C1382.15 402.35 1380.95 396.65 1380.2 390.8C1379.3 385.1 1379 379.25 1379 373.25C1379 367.4 1379.3 361.55 1380.2 355.7C1380.95 350 1382.15 344.3 1383.65 338.75C1385.15 333.35 1387.1 328.1 1389.35 323C1391.6 317.9 1394.15 313.25 1397 308.9H1416.95C1411.1 319.25 1406.9 329.75 1404.35 340.25C1401.8 350.75 1400.6 361.85 1400.6 373.25C1400.6 384.8 1401.8 395.9 1404.35 406.4C1406.9 416.9 1411.1 427.4 1416.95 437.6H1397Z" fill="black"/>
<path d="M3262.5 214.55C3261 223.4 3257.55 230.15 3251.85 234.65C3246.15 239.15 3238.05 241.4 3227.25 241.4C3214.2 241.4 3204.45 237.8 3197.85 230.6C3191.25 223.4 3188.1 213.2 3188.1 200C3188.1 193.4 3189 187.55 3190.95 182.45C3192.75 177.35 3195.45 172.85 3198.9 169.25C3202.35 165.65 3206.55 162.95 3211.35 161.15C3216.15 159.35 3221.4 158.3 3227.25 158.3C3239.25 158.3 3248.25 161.75 3254.25 168.65C3260.25 175.55 3263.4 184.85 3263.4 196.55V204.95H3209.1C3209.25 211.25 3210.9 216.2 3213.9 219.8C3216.9 223.4 3221.4 225.05 3227.4 225.05C3235.65 225.05 3240.6 221.6 3242.1 214.55H3262.5ZM3243.15 191.15C3243.15 185.75 3241.8 181.55 3239.1 178.55C3236.4 175.55 3232.35 174.05 3226.8 174.05C3223.95 174.05 3221.55 174.5 3219.45 175.4C3217.35 176.3 3215.55 177.65 3214.05 179.15C3212.55 180.65 3211.5 182.45 3210.75 184.55C3209.85 186.65 3209.4 188.75 3209.4 191.15H3243.15Z" fill="black"/>
<path d="M3175.75 210.65C3174.85 220.1 3171.7 227.6 3166 233.15C3160.3 238.7 3151.9 241.4 3140.65 241.4C3134.05 241.4 3128.35 240.5 3123.55 238.4C3118.75 236.45 3114.7 233.6 3111.7 230C3108.7 226.4 3106.45 222.05 3104.95 216.95C3103.45 211.85 3102.7 206.3 3102.7 200C3102.7 193.85 3103.45 188.15 3105.25 183.05C3107.05 177.95 3109.6 173.45 3112.9 169.85C3116.2 166.25 3120.25 163.4 3125.05 161.3C3129.85 159.35 3135.25 158.3 3141.55 158.3C3146.8 158.3 3151.45 159.05 3155.35 160.4C3159.25 161.75 3162.7 163.55 3165.4 165.95C3168.1 168.35 3170.2 171.35 3171.7 174.65C3173.2 177.95 3174.1 181.7 3174.7 185.6L3153.55 188.45C3152.95 184.55 3151.9 181.25 3150.1 178.85C3148.3 176.45 3145.15 175.1 3140.8 175.1C3137.5 175.1 3134.95 175.85 3132.85 177.2C3130.75 178.55 3128.95 180.35 3127.75 182.6C3126.55 185 3125.65 187.55 3125.2 190.55C3124.6 193.55 3124.45 196.55 3124.45 199.7C3124.45 203 3124.6 206.15 3125.2 209.15C3125.65 212.15 3126.55 214.85 3127.75 217.1C3128.95 219.5 3130.6 221.3 3132.7 222.65C3134.8 224 3137.35 224.6 3140.65 224.6C3144.85 224.6 3148 223.4 3150.4 221C3152.65 218.6 3154 215.15 3154.45 210.65H3175.75Z" fill="black"/>
<path d="M3016.63 160.7H3037.03V171.5C3040.03 167 3043.78 163.55 3047.98 161.45C3052.18 159.35 3056.68 158.3 3061.33 158.3C3070.18 158.3 3076.78 160.7 3081.13 165.35C3085.33 170 3087.58 177.35 3087.58 187.25V239H3066.58V190.1C3066.58 184.7 3065.53 180.95 3063.43 178.85C3061.33 176.9 3058.48 175.85 3055.03 175.85C3052.33 175.85 3049.93 176.3 3047.98 177.05C3046.03 177.95 3044.23 179 3042.58 180.5C3041.08 182 3039.88 183.65 3038.98 185.6C3038.08 187.55 3037.63 189.65 3037.63 191.9V239H3016.63V160.7Z" fill="black"/>
<path d="M3000 214.55C2998.5 223.4 2995.05 230.15 2989.35 234.65C2983.65 239.15 2975.55 241.4 2964.75 241.4C2951.7 241.4 2941.95 237.8 2935.35 230.6C2928.75 223.4 2925.6 213.2 2925.6 200C2925.6 193.4 2926.5 187.55 2928.45 182.45C2930.25 177.35 2932.95 172.85 2936.4 169.25C2939.85 165.65 2944.05 162.95 2948.85 161.15C2953.65 159.35 2958.9 158.3 2964.75 158.3C2976.75 158.3 2985.75 161.75 2991.75 168.65C2997.75 175.55 3000.9 184.85 3000.9 196.55V204.95H2946.6C2946.75 211.25 2948.4 216.2 2951.4 219.8C2954.4 223.4 2958.9 225.05 2964.9 225.05C2973.15 225.05 2978.1 221.6 2979.6 214.55H3000ZM2980.65 191.15C2980.65 185.75 2979.3 181.55 2976.6 178.55C2973.9 175.55 2969.85 174.05 2964.3 174.05C2961.45 174.05 2959.05 174.5 2956.95 175.4C2954.85 176.3 2953.05 177.65 2951.55 179.15C2950.05 180.65 2949 182.45 2948.25 184.55C2947.35 186.65 2946.9 188.75 2946.9 191.15H2980.65Z" fill="black"/>
<path d="M2856.74 243.95C2857.04 246.05 2857.64 247.55 2858.39 248.75C2859.14 249.95 2860.19 251 2861.39 251.6C2862.59 252.35 2864.09 252.8 2865.89 253.1C2867.69 253.4 2869.79 253.4 2872.34 253.4C2876.24 253.4 2879.24 252.8 2881.49 251.3C2883.59 249.8 2885.24 247.85 2886.29 245.45C2887.34 243.05 2887.94 240.35 2888.24 237.2C2888.54 234.2 2888.69 230.9 2888.69 227.6V225.2C2885.99 229.1 2882.69 231.95 2878.64 233.9C2874.59 235.85 2870.09 236.75 2864.99 236.75C2853.89 236.75 2845.64 233.3 2840.24 226.1C2834.84 219.05 2832.14 209.45 2832.14 197.45C2832.14 191.75 2832.89 186.5 2834.39 181.7C2835.89 176.9 2838.14 172.85 2841.14 169.4C2843.99 165.95 2847.59 163.25 2851.79 161.3C2855.99 159.35 2860.79 158.3 2866.19 158.3C2870.39 158.3 2874.44 159.2 2878.34 160.7C2882.24 162.35 2885.99 165.35 2889.29 169.55V160.7H2909.69V228.05C2909.69 234.65 2908.94 240.65 2907.59 245.75C2906.24 250.85 2904.14 255.2 2901.14 258.8C2898.14 262.4 2894.39 265.25 2889.59 267.05C2884.79 268.85 2879.09 269.75 2872.34 269.75C2866.04 269.75 2860.64 269.3 2856.14 268.25C2851.64 267.2 2848.04 265.55 2845.19 263.45C2842.19 261.35 2839.94 258.65 2838.44 255.35C2836.94 252.05 2835.89 248.3 2835.44 243.95H2856.74ZM2888.84 197.15C2888.84 192.5 2888.24 188.75 2887.19 185.75C2886.14 182.9 2884.79 180.65 2883.14 179.15C2881.34 177.65 2879.54 176.6 2877.44 176C2875.34 175.55 2873.24 175.25 2871.14 175.25C2868.74 175.25 2866.64 175.7 2864.54 176.45C2862.44 177.35 2860.64 178.55 2859.14 180.35C2857.64 182.15 2856.44 184.55 2855.54 187.25C2854.64 190.1 2854.19 193.4 2854.19 197.3C2854.19 205.7 2855.69 211.55 2858.84 215C2861.99 218.45 2865.89 220.1 2870.69 220.1C2873.24 220.1 2875.64 219.8 2877.89 219.05C2880.14 218.3 2882.09 217.1 2883.74 215.45C2885.24 213.8 2886.59 211.7 2887.49 209C2888.39 206.3 2888.84 203.15 2888.84 199.25V197.15Z" fill="black"/>
<path d="M2795.15 160.7H2816.15V239H2795.15V160.7ZM2794.85 131.9H2816.45V150.8H2794.85V131.9Z" fill="black"/>
<path d="M2755.3 131.9H2776.3V239H2755.3V131.9Z" fill="black"/>
<path d="M2715.46 131.9H2736.46V239H2715.46V131.9Z" fill="black"/>
<path d="M2698.68 214.55C2697.18 223.4 2693.73 230.15 2688.03 234.65C2682.33 239.15 2674.23 241.4 2663.43 241.4C2650.38 241.4 2640.63 237.8 2634.03 230.6C2627.43 223.4 2624.28 213.2 2624.28 200C2624.28 193.4 2625.18 187.55 2627.13 182.45C2628.93 177.35 2631.63 172.85 2635.08 169.25C2638.53 165.65 2642.73 162.95 2647.53 161.15C2652.33 159.35 2657.58 158.3 2663.43 158.3C2675.43 158.3 2684.43 161.75 2690.43 168.65C2696.43 175.55 2699.58 184.85 2699.58 196.55V204.95H2645.28C2645.43 211.25 2647.08 216.2 2650.08 219.8C2653.08 223.4 2657.58 225.05 2663.58 225.05C2671.83 225.05 2676.78 221.6 2678.28 214.55H2698.68ZM2679.33 191.15C2679.33 185.75 2677.98 181.55 2675.28 178.55C2672.58 175.55 2668.53 174.05 2662.98 174.05C2660.13 174.05 2657.73 174.5 2655.63 175.4C2653.53 176.3 2651.73 177.65 2650.23 179.15C2648.73 180.65 2647.68 182.45 2646.93 184.55C2646.03 186.65 2645.58 188.75 2645.58 191.15H2679.33Z" fill="black"/>
<path d="M2576.41 177.05H2564.11V160.7H2576.41V139.85H2597.41V160.7H2615.41V177.05H2597.41V213.2C2597.41 217.4 2598.16 220.1 2599.96 221.6C2601.61 223.1 2603.86 223.7 2606.56 223.7C2607.91 223.7 2609.26 223.7 2610.76 223.55C2612.26 223.4 2613.61 223.1 2615.11 222.65L2618.11 238.1C2615.11 239 2612.26 239.75 2609.56 240.05C2606.86 240.35 2604.16 240.5 2601.76 240.5C2593.06 240.5 2586.76 238.55 2582.56 234.35C2578.36 230.3 2576.41 223.4 2576.41 213.65V177.05Z" fill="black"/>
<path d="M2482.84 160.7H2503.24V171.5C2506.24 167 2509.99 163.55 2514.19 161.45C2518.39 159.35 2522.89 158.3 2527.54 158.3C2536.39 158.3 2542.99 160.7 2547.34 165.35C2551.54 170 2553.79 177.35 2553.79 187.25V239H2532.79V190.1C2532.79 184.7 2531.74 180.95 2529.64 178.85C2527.54 176.9 2524.69 175.85 2521.24 175.85C2518.54 175.85 2516.14 176.3 2514.19 177.05C2512.24 177.95 2510.44 179 2508.79 180.5C2507.29 182 2506.09 183.65 2505.19 185.6C2504.29 187.55 2503.84 189.65 2503.84 191.9V239H2482.84V160.7Z" fill="black"/>
<path d="M2440.25 131.9H2462.6V239H2440.25V131.9Z" fill="black"/>
<path d="M2388.72 214.55C2387.22 223.4 2383.77 230.15 2378.07 234.65C2372.37 239.15 2364.27 241.4 2353.47 241.4C2340.42 241.4 2330.67 237.8 2324.07 230.6C2317.47 223.4 2314.32 213.2 2314.32 200C2314.32 193.4 2315.22 187.55 2317.17 182.45C2318.97 177.35 2321.67 172.85 2325.12 169.25C2328.57 165.65 2332.77 162.95 2337.57 161.15C2342.37 159.35 2347.62 158.3 2353.47 158.3C2365.47 158.3 2374.47 161.75 2380.47 168.65C2386.47 175.55 2389.62 184.85 2389.62 196.55V204.95H2335.32C2335.47 211.25 2337.12 216.2 2340.12 219.8C2343.12 223.4 2347.62 225.05 2353.62 225.05C2361.87 225.05 2366.82 221.6 2368.32 214.55H2388.72ZM2369.37 191.15C2369.37 185.75 2368.02 181.55 2365.32 178.55C2362.62 175.55 2358.57 174.05 2353.02 174.05C2350.17 174.05 2347.77 174.5 2345.67 175.4C2343.57 176.3 2341.77 177.65 2340.27 179.15C2338.77 180.65 2337.72 182.45 2336.97 184.55C2336.07 186.65 2335.62 188.75 2335.62 191.15H2369.37Z" fill="black"/>
<path d="M2228.06 160.7H2252.36L2269.91 215.15L2287.46 160.7H2310.71L2279.81 239H2258.81L2228.06 160.7Z" fill="black"/>
<path d="M2196.46 160.7H2217.46V239H2196.46V160.7ZM2196.16 131.9H2217.76V150.8H2196.16V131.9Z" fill="black"/>
<path d="M2144.28 177.05H2131.98V160.7H2144.28V139.85H2165.28V160.7H2183.28V177.05H2165.28V213.2C2165.28 217.4 2166.03 220.1 2167.83 221.6C2169.48 223.1 2171.73 223.7 2174.43 223.7C2175.78 223.7 2177.13 223.7 2178.63 223.55C2180.13 223.4 2181.48 223.1 2182.98 222.65L2185.98 238.1C2182.98 239 2180.13 239.75 2177.43 240.05C2174.73 240.35 2172.03 240.5 2169.63 240.5C2160.93 240.5 2154.63 238.55 2150.43 234.35C2146.23 230.3 2144.28 223.4 2144.28 213.65V177.05Z" fill="black"/>
<path d="M2124.43 210.65C2123.53 220.1 2120.38 227.6 2114.68 233.15C2108.98 238.7 2100.58 241.4 2089.33 241.4C2082.73 241.4 2077.03 240.5 2072.23 238.4C2067.43 236.45 2063.38 233.6 2060.38 230C2057.38 226.4 2055.13 222.05 2053.63 216.95C2052.13 211.85 2051.38 206.3 2051.38 200C2051.38 193.85 2052.13 188.15 2053.93 183.05C2055.73 177.95 2058.28 173.45 2061.58 169.85C2064.88 166.25 2068.93 163.4 2073.73 161.3C2078.53 159.35 2083.93 158.3 2090.23 158.3C2095.48 158.3 2100.13 159.05 2104.03 160.4C2107.93 161.75 2111.38 163.55 2114.08 165.95C2116.78 168.35 2118.88 171.35 2120.38 174.65C2121.88 177.95 2122.78 181.7 2123.38 185.6L2102.23 188.45C2101.63 184.55 2100.58 181.25 2098.78 178.85C2096.98 176.45 2093.83 175.1 2089.48 175.1C2086.18 175.1 2083.63 175.85 2081.53 177.2C2079.43 178.55 2077.63 180.35 2076.43 182.6C2075.23 185 2074.33 187.55 2073.88 190.55C2073.28 193.55 2073.13 196.55 2073.13 199.7C2073.13 203 2073.28 206.15 2073.88 209.15C2074.33 212.15 2075.23 214.85 2076.43 217.1C2077.63 219.5 2079.28 221.3 2081.38 222.65C2083.48 224 2086.03 224.6 2089.33 224.6C2093.53 224.6 2096.68 223.4 2099.08 221C2101.33 218.6 2102.68 215.15 2103.13 210.65H2124.43Z" fill="black"/>
<path d="M2037.45 214.55C2035.95 223.4 2032.5 230.15 2026.8 234.65C2021.1 239.15 2013 241.4 2002.2 241.4C1989.15 241.4 1979.4 237.8 1972.8 230.6C1966.2 223.4 1963.05 213.2 1963.05 200C1963.05 193.4 1963.95 187.55 1965.9 182.45C1967.7 177.35 1970.4 172.85 1973.85 169.25C1977.3 165.65 1981.5 162.95 1986.3 161.15C1991.1 159.35 1996.35 158.3 2002.2 158.3C2014.2 158.3 2023.2 161.75 2029.2 168.65C2035.2 175.55 2038.35 184.85 2038.35 196.55V204.95H1984.05C1984.2 211.25 1985.85 216.2 1988.85 219.8C1991.85 223.4 1996.35 225.05 2002.35 225.05C2010.6 225.05 2015.55 221.6 2017.05 214.55H2037.45ZM2018.1 191.15C2018.1 185.75 2016.75 181.55 2014.05 178.55C2011.35 175.55 2007.3 174.05 2001.75 174.05C1998.9 174.05 1996.5 174.5 1994.4 175.4C1992.3 176.3 1990.5 177.65 1989 179.15C1987.5 180.65 1986.45 182.45 1985.7 184.55C1984.8 186.65 1984.35 188.75 1984.35 191.15H2018.1Z" fill="black"/>
<path d="M1874.17 177.05H1861.87V160.7H1874.17V158.15C1874.17 153.35 1874.77 149.3 1876.27 145.7C1877.62 142.25 1879.57 139.4 1881.97 137.15C1884.37 135.05 1887.37 133.4 1890.67 132.35C1893.97 131.3 1897.57 130.7 1901.47 130.7C1903.87 130.7 1906.57 130.85 1909.27 131.15C1911.97 131.45 1914.82 132.05 1917.82 132.95L1914.97 148.25C1911.67 147.5 1908.67 147.05 1905.82 147.05C1903.12 147.05 1900.57 147.95 1898.47 149.45C1896.22 150.95 1895.17 153.8 1895.17 157.7V160.7H1913.32V177.05H1895.17V239H1874.17V177.05ZM1926.07 131.9H1947.07V239H1926.07V131.9Z" fill="black"/>
<path d="M1852.44 214.55C1850.94 223.4 1847.49 230.15 1841.79 234.65C1836.09 239.15 1827.99 241.4 1817.19 241.4C1804.14 241.4 1794.39 237.8 1787.79 230.6C1781.19 223.4 1778.04 213.2 1778.04 200C1778.04 193.4 1778.94 187.55 1780.89 182.45C1782.69 177.35 1785.39 172.85 1788.84 169.25C1792.29 165.65 1796.49 162.95 1801.29 161.15C1806.09 159.35 1811.34 158.3 1817.19 158.3C1829.19 158.3 1838.19 161.75 1844.19 168.65C1850.19 175.55 1853.34 184.85 1853.34 196.55V204.95H1799.04C1799.19 211.25 1800.84 216.2 1803.84 219.8C1806.84 223.4 1811.34 225.05 1817.34 225.05C1825.59 225.05 1830.54 221.6 1832.04 214.55H1852.44ZM1833.09 191.15C1833.09 185.75 1831.74 181.55 1829.04 178.55C1826.34 175.55 1822.29 174.05 1816.74 174.05C1813.89 174.05 1811.49 174.5 1809.39 175.4C1807.29 176.3 1805.49 177.65 1803.99 179.15C1802.49 180.65 1801.44 182.45 1800.69 184.55C1799.79 186.65 1799.34 188.75 1799.34 191.15H1833.09Z" fill="black"/>
<path d="M1687.32 131.9H1725.27C1733.67 131.9 1740.57 132.95 1745.97 134.9C1751.37 136.85 1755.72 139.4 1758.87 142.55C1761.87 145.7 1764.12 149.15 1765.32 153.05C1766.52 156.95 1767.12 160.7 1767.12 164.3C1767.12 171.2 1765.77 177.05 1763.37 181.7C1760.82 186.5 1756.62 190.4 1750.77 193.55L1772.52 239H1748.37L1730.37 198.8H1709.37V239H1687.32V131.9ZM1726.77 180.2C1730.22 180.2 1733.07 179.9 1735.47 179.15C1737.72 178.4 1739.52 177.35 1740.87 176C1742.22 174.65 1743.12 173 1743.72 171.05C1744.17 169.25 1744.47 167.15 1744.47 164.75C1744.47 162.95 1744.17 161.15 1743.57 159.35C1742.97 157.55 1741.92 156.05 1740.42 154.7C1738.92 153.35 1736.97 152.3 1734.42 151.55C1731.87 150.8 1728.72 150.35 1724.82 150.35H1709.37V180.2H1726.77Z" fill="black"/>
<path d="M1635.79 214.55C1634.29 223.4 1630.84 230.15 1625.14 234.65C1619.44 239.15 1611.34 241.4 1600.54 241.4C1587.49 241.4 1577.74 237.8 1571.14 230.6C1564.54 223.4 1561.39 213.2 1561.39 200C1561.39 193.4 1562.29 187.55 1564.24 182.45C1566.04 177.35 1568.74 172.85 1572.19 169.25C1575.64 165.65 1579.84 162.95 1584.64 161.15C1589.44 159.35 1594.69 158.3 1600.54 158.3C1612.54 158.3 1621.54 161.75 1627.54 168.65C1633.54 175.55 1636.69 184.85 1636.69 196.55V204.95H1582.39C1582.54 211.25 1584.19 216.2 1587.19 219.8C1590.19 223.4 1594.69 225.05 1600.69 225.05C1608.94 225.05 1613.89 221.6 1615.39 214.55H1635.79ZM1616.44 191.15C1616.44 185.75 1615.09 181.55 1612.39 178.55C1609.69 175.55 1605.64 174.05 1600.09 174.05C1597.24 174.05 1594.84 174.5 1592.74 175.4C1590.64 176.3 1588.84 177.65 1587.34 179.15C1585.84 180.65 1584.79 182.45 1584.04 184.55C1583.14 186.65 1582.69 188.75 1582.69 191.15H1616.44Z" fill="black"/>
<path d="M1475.32 131.9H1496.32V170.6C1499.32 166.4 1502.92 163.4 1507.12 161.3C1511.17 159.35 1515.52 158.3 1520.02 158.3C1528.87 158.3 1535.47 160.7 1539.82 165.35C1544.02 170 1546.27 177.35 1546.27 187.25V239H1525.27V190.1C1525.27 184.7 1524.22 180.95 1522.12 178.85C1520.02 176.9 1517.17 175.85 1513.72 175.85C1511.02 175.85 1508.62 176.3 1506.67 177.05C1504.72 177.95 1502.92 179 1501.27 180.5C1499.77 182 1498.57 183.65 1497.67 185.6C1496.77 187.55 1496.32 189.65 1496.32 191.9V239H1475.32V131.9Z" fill="black"/>
<path d="M1408.25 151.25H1376V131.9H1463V151.25H1430.75V239H1408.25V151.25Z" fill="black"/>
<path fill-rule="evenodd" clip-rule="evenodd" d="M1323 277.458C1323 167.3 1217.87 78 1088.18 78C1085.93 78 1083.68 78.0278 1081.45 78.0835H1039.44C1037.2 78.0278 1034.96 78 1032.71 78C1030.46 78 1028.21 78.0278 1025.98 78.0835H983.967C981.73 78.0278 979.492 78 977.241 78C974.99 78 972.745 78.0278 970.515 78.0835H928.499C926.262 78.0278 924.024 78 921.773 78C919.522 78 917.277 78.0278 915.047 78.0835H873.031C870.794 78.0278 868.556 78 866.305 78C864.054 78 861.809 78.0278 859.579 78.0835H817.563C815.326 78.0278 813.088 78 810.837 78C681.137 78 576 167.3 576 277.458C576 387.616 681.137 476.916 810.823 476.916C810.886 476.916 810.948 476.916 811.011 476.916V477H1091.91V476.875C1219.88 475.183 1323 386.558 1323 277.458ZM949.5 416.348C901.622 382.694 871.839 332.22 871.839 277.458C871.839 222.696 901.622 172.215 949.5 138.568C997.378 172.222 1027.16 222.696 1027.16 277.458C1027.16 332.22 997.378 382.701 949.5 416.348ZM955.919 442.288C953.801 443.096 951.654 443.875 949.5 444.627C947.339 443.875 945.199 443.103 943.081 442.288C945.248 441.028 947.388 439.74 949.5 438.424C951.612 439.74 953.752 441.035 955.919 442.288ZM932.786 426.986C929.196 429.046 925.516 431.017 921.766 432.896C857.927 400.83 816.371 342.148 816.371 277.458C816.371 212.768 857.927 154.087 921.766 122.02C925.516 123.9 929.196 125.87 932.786 127.931C884.079 164.474 853.354 217.913 853.354 277.458C853.354 337.003 884.079 390.436 932.786 426.986ZM943.081 112.628C945.199 111.821 947.346 111.041 949.5 110.289C951.661 111.041 953.801 111.814 955.919 112.628C953.752 113.889 951.612 115.177 949.5 116.492C947.388 115.177 945.248 113.882 943.081 112.628ZM1045.65 277.458C1045.65 217.913 1014.93 164.481 966.221 127.931C969.811 125.87 973.491 123.9 977.241 122.02C1041.08 154.087 1082.64 212.768 1082.64 277.458C1082.64 342.148 1041.08 400.83 977.241 432.896C973.491 431.017 969.811 429.046 966.221 426.986C1014.93 390.443 1045.65 337.003 1045.65 277.458ZM1101.12 277.458C1101.12 208.967 1060.47 148.545 998.549 112.628C1000.67 111.821 1002.81 111.041 1004.97 110.289C1084.25 137.949 1138.1 203.815 1138.1 277.451C1138.1 351.087 1084.25 416.961 1004.97 444.613C1002.81 443.861 1000.67 443.089 998.549 442.274C1060.47 406.358 1101.12 345.935 1101.12 277.444V277.458ZM1156.59 277.458C1156.59 202.555 1107.97 137.308 1036.09 103.209C1128.49 124.937 1193.57 196.498 1193.57 277.458C1193.57 358.418 1128.49 429.979 1036.09 451.707C1107.97 417.608 1156.59 352.361 1156.59 277.458ZM900.451 112.628C838.529 148.545 797.879 208.967 797.879 277.458C797.879 345.949 838.529 406.372 900.451 442.288C898.332 443.096 896.186 443.875 894.032 444.627C814.754 416.968 760.903 351.101 760.903 277.465C760.903 203.829 814.754 137.956 894.032 110.303C896.193 111.055 898.332 111.828 900.451 112.642V112.628ZM1212.06 277.458C1212.06 202.555 1163.45 137.308 1091.56 103.209C1183.97 124.937 1249.05 196.498 1249.05 277.458C1249.05 358.418 1183.97 429.979 1091.56 451.707C1163.45 417.608 1212.06 352.361 1212.06 277.458ZM594.492 277.458C594.492 196.498 659.572 124.937 751.974 103.209C680.092 137.308 631.475 202.555 631.475 277.458C631.475 352.361 680.092 417.608 751.974 451.707C659.572 429.979 594.492 358.418 594.492 277.458ZM649.96 277.458C649.96 196.498 715.04 124.937 807.442 103.209C735.56 137.308 686.943 202.555 686.943 277.458C686.943 352.361 735.56 417.608 807.442 451.707C715.04 429.979 649.96 358.418 649.96 277.458ZM705.428 277.458C705.428 196.498 770.508 124.937 862.91 103.209C791.028 137.308 742.411 202.555 742.411 277.458C742.411 352.361 791.028 417.608 862.91 451.707C770.508 429.979 705.428 358.418 705.428 277.458ZM1147.03 451.707C1218.92 417.608 1267.53 352.361 1267.53 277.458C1267.53 202.555 1218.92 137.308 1147.03 103.209C1239.44 124.937 1304.52 196.498 1304.52 277.458C1304.52 358.418 1239.44 429.979 1147.04 451.707H1147.03Z" fill="black"/>
</svg>
